<svg viewBox="0 0 32 32" xmlns="http://www.w3.org/2000/svg"><g data-name="Shield Lock"><path d="M28 6c-8.49 0-11.16-3.54-11.18-3.57A1 1 0 0 0 16 2a.94.94 0 0 0-.83.42S12.49 6 4 6a1 1 0 0 0-1 1v8.76c0 9.25 7.11 12 11.35 13.66l1.27.5a.94.94 0 0 0 .76 0l1.26-.5C21.89 27.77 29 25 29 15.76V7a1 1 0 0 0-1-1Z" fill="#d9e0eb" class="fill-d8e1ef"></path><path d="M18 15h-4a1 1 0 0 1-1-1v-2a3 3 0 0 1 6 0v2a1 1 0 0 1-1 1Zm-3-2h2v-1a1 1 0 0 0-2 0Z" fill="#4a1fb8" class="fill-0e6ae0"></path><rect height="10" rx="3" ry="3" width="10" x="11" y="13" fill="#553bbd" class="fill-0593ff"></rect><path d="M16 20a2 2 0 1 1 2-2 2 2 0 0 1-2 2Zm0-2Z" fill="#4a1fb8" class="fill-0e6ae0"></path></g></svg>